<svg xmlns="http://www.w3.org/2000/svg" width="1026.0045166015625" height="929.561767578125" viewBox="-498.3083190917969 -466.9551696777344 1026.0045166015625 929.561767578125"><title>Neo4j Graph Visualization</title><desc>Created using Neo4j (http://www.neo4j.com/)</desc><g class="layer relationships"><g class="relationship" transform="translate(17.940978859545705 292.6553075314604) rotate(470.93696970694873)"><path class="b-outline" fill="#8DCC93" stroke="none" d="M 25 1 L 36.66678378005004 1 L 36.66678378005004 -1 L 25 -1 Z M 106.24881503005004 1 L 117.91559881010008 1 L 117.91559881010008 4 L 125.91559881010008 0 L 117.91559881010008 -4 L 117.91559881010008 -1 L 106.24881503005004 -1 Z"/><text text-anchor="middle" pointer-events="none" font-size="8px" fill="#000000" x="71.45779940505004" y="3" transform="rotate(180 71.45779940505004 0)" font-family="Helvetica Neue, Helvetica, Arial, sans-serif">HAS_SUBCLASS</text></g><g class="relationship" transform="translate(17.940978859545705 292.6553075314604) rotate(426.8462872718867)"><path class="b-outline" fill="#8DCC93" stroke="none" d="M 25 1 L 35.90393927421799 1 L 35.90393927421799 -1 L 25 -1 Z M 105.48597052421799 1 L 116.38990979843598 1 L 116.38990979843598 4 L 124.38990979843598 0 L 116.38990979843598 -4 L 116.38990979843598 -1 L 105.48597052421799 -1 Z"/><text text-anchor="middle" pointer-events="none" font-size="8px" fill="#000000" x="70.69495489921799" y="3" font-family="Helvetica Neue, Helvetica, Arial, sans-serif">HAS_SUBCLASS</text></g><g class="relationship" transform="translate(17.940978859545705 292.6553075314604) rotate(384.6974022866192)"><path class="b-outline" fill="#8DCC93" stroke="none" d="M 25 1 L 34.879342015893286 1 L 34.879342015893286 -1 L 25 -1 Z M 104.46137326589329 1 L 114.34071528178657 1 L 114.34071528178657 4 L 122.34071528178657 0 L 114.34071528178657 -4 L 114.34071528178657 -1 L 104.46137326589329 -1 Z"/><text text-anchor="middle" pointer-events="none" font-size="8px" fill="#000000" x="69.67035764089329" y="3" font-family="Helvetica Neue, Helvetica, Arial, sans-serif">HAS_SUBCLASS</text></g><g class="relationship" transform="translate(217.26874512671748 151.9528041286053) rotate(355.648128144903)"><path class="b-outline" fill="#8DCC93" stroke="none" d="M 25 1 L 58.383516032510215 1 L 58.383516032510215 -1 L 25 -1 Z M 127.96554728251022 1 L 161.34906331502043 1 L 161.34906331502043 4 L 169.34906331502043 0 L 161.34906331502043 -4 L 161.34906331502043 -1 L 127.96554728251022 -1 Z"/><text text-anchor="middle" pointer-events="none" font-size="8px" fill="#000000" x="93.17453165751022" y="3" font-family="Helvetica Neue, Helvetica, Arial, sans-serif">HAS_SUBCLASS</text></g><g class="relationship" transform="translate(217.26874512671748 151.9528041286053) rotate(315.9479829050914)"><path class="b-outline" fill="#8DCC93" stroke="none" d="M 25 1 L 60.62437756552616 1 L 60.62437756552616 -1 L 25 -1 Z M 130.20640881552617 1 L 165.83078638105232 1 L 165.83078638105232 4 L 173.83078638105232 0 L 165.83078638105232 -4 L 165.83078638105232 -1 L 130.20640881552617 -1 Z"/><text text-anchor="middle" pointer-events="none" font-size="8px" fill="#000000" x="95.41539319052616" y="3" font-family="Helvetica Neue, Helvetica, Arial, sans-serif">HAS_SUBCLASS</text></g><g class="relationship" transform="translate(217.26874512671748 151.9528041286053) rotate(277.3508664131461)"><path class="b-outline" fill="#8DCC93" stroke="none" d="M 25 1 L 43.177323736628765 1 L 43.177323736628765 -1 L 25 -1 Z M 112.75935498662876 1 L 130.93667872325753 1 L 130.93667872325753 4 L 138.93667872325753 0 L 130.93667872325753 -4 L 130.93667872325753 -1 L 112.75935498662876 -1 Z"/><text text-anchor="middle" pointer-events="none" font-size="8px" fill="#000000" x="77.96833936162876" y="3" font-family="Helvetica Neue, Helvetica, Arial, sans-serif">HAS_SUBCLASS</text></g><g class="relationship" transform="translate(32.10531424920312 -123.63673103710296) rotate(242.10843015701766)"><path class="b-outline" fill="#8DCC93" stroke="none" d="M 25 1 L 38.65941622519044 1 L 38.65941622519044 -1 L 25 -1 Z M 108.24144747519044 1 L 121.90086370038088 1 L 121.90086370038088 4 L 129.90086370038088 0 L 121.90086370038088 -4 L 121.90086370038088 -1 L 108.24144747519044 -1 Z"/><text text-anchor="middle" pointer-events="none" font-size="8px" fill="#000000" x="73.45043185019044" y="3" transform="rotate(180 73.45043185019044 0)" font-family="Helvetica Neue, Helvetica, Arial, sans-serif">HAS_SUBCLASS</text></g><g class="relationship" transform="translate(32.10531424920312 -123.63673103710296) rotate(278.022249126607)"><path class="b-outline" fill="#8DCC93" stroke="none" d="M 25 1 L 74.75377536500625 1 L 74.75377536500625 -1 L 25 -1 Z M 144.33580661500625 1 L 194.0895819800125 1 L 194.0895819800125 4 L 202.0895819800125 0 L 194.0895819800125 -4 L 194.0895819800125 -1 L 144.33580661500625 -1 Z"/><text text-anchor="middle" pointer-events="none" font-size="8px" fill="#000000" x="109.54479099000625" y="3" font-family="Helvetica Neue, Helvetica, Arial, sans-serif">HAS_SUBCLASS</text></g><g class="relationship" transform="translate(32.10531424920312 -123.63673103710296) rotate(281.863860710218)"><path class="b-outline" fill="#8DCC93" stroke="none" d="M 25 1 L 25.57119055966642 1 L 25.57119055966642 -1 L 25 -1 Z M 95.15322180966642 1 L 95.72441236933284 1 L 95.72441236933284 4 L 103.72441236933284 0 L 95.72441236933284 -4 L 95.72441236933284 -1 L 95.15322180966642 -1 Z"/><text text-anchor="middle" pointer-events="none" font-size="8px" fill="#000000" x="60.36220618466642" y="3" font-family="Helvetica Neue, Helvetica, Arial, sans-serif">HAS_SUBCLASS</text></g><g class="relationship" transform="translate(-200.34178797146433 78.01977059971799) rotate(279.9035676321038)"><path class="b-outline" fill="#8DCC93" stroke="none" d="M 25 1 L 28.12132969202611 1 L 28.12132969202611 -1 L 25 -1 Z M 97.70336094202611 1 L 100.82469063405222 1 L 100.82469063405222 4 L 108.82469063405222 0 L 100.82469063405222 -4 L 100.82469063405222 -1 L 97.70336094202611 -1 Z"/><text text-anchor="middle" pointer-events="none" font-size="8px" fill="#000000" x="62.91234531702611" y="3" font-family="Helvetica Neue, Helvetica, Arial, sans-serif">HAS_SUBCLASS</text></g><g class="relationship" transform="translate(-200.34178797146433 78.01977059971799) rotate(247.8733149147501)"><path class="b-outline" fill="#8DCC93" stroke="none" d="M 25 1 L 52.28881592992499 1 L 52.28881592992499 -1 L 25 -1 Z M 121.870847179925 1 L 149.15966310985 1 L 149.15966310985 4 L 157.15966310985 0 L 149.15966310985 -4 L 149.15966310985 -1 L 121.870847179925 -1 Z"/><text text-anchor="middle" pointer-events="none" font-size="8px" fill="#000000" x="87.079831554925" y="3" transform="rotate(180 87.079831554925 0)" font-family="Helvetica Neue, Helvetica, Arial, sans-serif">HAS_SUBCLASS</text></g><g class="relationship" transform="translate(-200.34178797146433 78.01977059971799) rotate(496.3567186960378)"><path class="b-outline" fill="#8DCC93" stroke="none" d="M 25 1 L 41.84693169864747 1 L 41.84693169864747 -1 L 25 -1 Z M 111.42896294864747 1 L 128.27589464729493 1 L 128.27589464729493 4 L 136.27589464729493 0 L 128.27589464729493 -4 L 128.27589464729493 -1 L 111.42896294864747 -1 Z"/><text text-anchor="middle" pointer-events="none" font-size="8px" fill="#000000" x="76.63794732364747" y="3" transform="rotate(180 76.63794732364747 0)" font-family="Helvetica Neue, Helvetica, Arial, sans-serif">HAS_SUBCLASS</text></g><g class="relationship" transform="translate(-200.34178797146433 78.01977059971799) rotate(180.19286393690993)"><path class="b-outline" fill="#8DCC93" stroke="none" d="M 25 1 L 40.09984960323608 1 L 40.09984960323608 -1 L 25 -1 Z M 109.68188085323608 1 L 124.78173045647216 1 L 124.78173045647216 4 L 132.78173045647216 0 L 124.78173045647216 -4 L 124.78173045647216 -1 L 109.68188085323608 -1 Z"/><text text-anchor="middle" pointer-events="none" font-size="8px" fill="#000000" x="74.89086522823608" y="3" transform="rotate(180 74.89086522823608 0)" font-family="Helvetica Neue, Helvetica, Arial, sans-serif">HAS_SUBCLASS</text></g><g class="relationship" transform="translate(411.0574697800375 137.2053091323172) rotate(301.91064770525014)"><path class="b-outline" fill="#FFC454" stroke="none" d="M 25 1 L 45.44251215796788 1 L 45.44251215796788 -1 L 25 -1 Z M 112.35266840796788 1 L 132.79518056593577 1 L 132.79518056593577 4 L 140.79518056593577 0 L 132.79518056593577 -4 L 132.79518056593577 -1 L 112.35266840796788 -1 Z"/><text text-anchor="middle" pointer-events="none" font-size="8px" fill="#000000" x="78.89759028296788" y="3" font-family="Helvetica Neue, Helvetica, Arial, sans-serif">Smart_City_Tech</text></g><g class="relationship" transform="translate(360.1701899127667 13.703541233762401) rotate(352.90690729504627)"><path class="b-outline" fill="#FFC454" stroke="none" d="M 25 1 L 32.34207379951421 1 L 32.34207379951421 -1 L 25 -1 Z M 99.25223004951421 1 L 106.59430384902842 1 L 106.59430384902842 4 L 114.59430384902842 0 L 106.59430384902842 -4 L 106.59430384902842 -1 L 99.25223004951421 -1 Z"/><text text-anchor="middle" pointer-events="none" font-size="8px" fill="#000000" x="65.79715192451421" y="3" font-family="Helvetica Neue, Helvetica, Arial, sans-serif">Smart_City_Tech</text></g><g class="relationship" transform="translate(360.1701899127667 13.703541233762401) rotate(261.40286441957323)"><path class="b-outline" fill="#FFC454" stroke="none" d="M 25 1 L 37.60073388413359 1 L 37.60073388413359 -1 L 25 -1 Z M 104.51089013413359 1 L 117.11162401826718 1 L 117.11162401826718 4 L 125.11162401826718 0 L 117.11162401826718 -4 L 117.11162401826718 -1 L 104.51089013413359 -1 Z"/><text text-anchor="middle" pointer-events="none" font-size="8px" fill="#000000" x="71.05581200913359" y="3" transform="rotate(180 71.05581200913359 0)" font-family="Helvetica Neue, Helvetica, Arial, sans-serif">Smart_City_Tech</text></g><g class="relationship" transform="translate(238.24364787913643 -10.63651927652829) rotate(308.72143182655407)"><path class="b-outline" fill="#FFC454" stroke="none" d="M 25 1 L 42.066485533506324 1 L 42.066485533506324 -1 L 25 -1 Z M 108.97664178350632 1 L 126.04312731701265 1 L 126.04312731701265 4 L 134.04312731701265 0 L 126.04312731701265 -4 L 126.04312731701265 -1 L 108.97664178350632 -1 Z"/><text text-anchor="middle" pointer-events="none" font-size="8px" fill="#000000" x="75.52156365850632" y="3" font-family="Helvetica Neue, Helvetica, Arial, sans-serif">Smart_City_Tech</text></g><g class="relationship" transform="translate(-40.35727528210824 -260.54345363880964) rotate(267.2513506025305)"><path class="b-outline" fill="#DA7194" stroke="none" d="M 25 1 L 43.79437150083574 1 L 43.79437150083574 -1 L 25 -1 Z M 125.82171525083574 1 L 144.61608675167147 1 L 144.61608675167147 4 L 152.61608675167147 0 L 144.61608675167147 -4 L 144.61608675167147 -1 L 125.82171525083574 -1 Z"/><text text-anchor="middle" pointer-events="none" font-size="8px" fill="#000000" x="84.80804337583574" y="3" transform="rotate(180 84.80804337583574 0)" font-family="Helvetica Neue, Helvetica, Arial, sans-serif">Inclusive_Community</text></g><g class="relationship" transform="translate(63.79739853124582 -348.50400308378545) rotate(218.44629479206014)"><path class="b-outline" fill="#DA7194" stroke="none" d="M 25 1 L 26.917781447653297 1 L 26.917781447653297 -1 L 25 -1 Z M 108.9451251976533 1 L 110.8629066453066 1 L 110.8629066453066 4 L 118.8629066453066 0 L 110.8629066453066 -4 L 110.8629066453066 -1 L 108.9451251976533 -1 Z"/><text text-anchor="middle" pointer-events="none" font-size="8px" fill="#000000" x="67.9314533226533" y="3" transform="rotate(180 67.9314533226533 0)" font-family="Helvetica Neue, Helvetica, Arial, sans-serif">Inclusive_Community</text></g><g class="relationship" transform="translate(63.79739853124582 -348.50400308378545) rotate(539.4139434916231)"><path class="b-outline" fill="#DA7194" stroke="none" d="M 25 1 L 31.60988106664297 1 L 31.60988106664297 -1 L 25 -1 Z M 113.63722481664297 1 L 120.24710588328594 1 L 120.24710588328594 4 L 128.24710588328594 0 L 120.24710588328594 -4 L 120.24710588328594 -1 L 113.63722481664297 -1 Z"/><text text-anchor="middle" pointer-events="none" font-size="8px" fill="#000000" x="72.62355294164297" y="3" transform="rotate(180 72.62355294164297 0)" font-family="Helvetica Neue, Helvetica, Arial, sans-serif">Inclusive_Community</text></g><g class="relationship" transform="translate(58.56937361374829 -249.6114423952953) rotate(213.32702981111424)"><path class="b-outline" fill="#DA7194" stroke="none" d="M 25 1 L 43.55755201156647 1 L 43.55755201156647 -1 L 25 -1 Z M 125.58489576156647 1 L 144.14244777313294 1 L 144.14244777313294 4 L 152.14244777313294 0 L 144.14244777313294 -4 L 144.14244777313294 -1 L 125.58489576156647 -1 Z"/><text text-anchor="middle" pointer-events="none" font-size="8px" fill="#000000" x="84.57122388656647" y="3" transform="rotate(180 84.57122388656647 0)" font-family="Helvetica Neue, Helvetica, Arial, sans-serif">Inclusive_Community</text></g><g class="relationship" transform="translate(-177.325220589771 -53.8107472983156) rotate(183.68733011819194)"><path class="b-outline" fill="#C990C0" stroke="none" d="M 25 1 L 59.60152608810678 1 L 59.60152608810678 -1 L 25 -1 Z M 127.40621358810678 1 L 162.00773967621356 1 L 162.00773967621356 4 L 170.00773967621356 0 L 162.00773967621356 -4 L 162.00773967621356 -1 L 127.40621358810678 -1 Z"/><text text-anchor="middle" pointer-events="none" font-size="8px" fill="#000000" x="93.50386983810678" y="3" transform="rotate(180 93.50386983810678 0)" font-family="Helvetica Neue, Helvetica, Arial, sans-serif">Diverse_Heritage</text></g><g class="relationship" transform="translate(-268.9532718024712 -90.72443567356872) rotate(526.6842305879173)"><path class="b-outline" fill="#C990C0" stroke="none" d="M 25 1 L 26.127265276084145 1 L 26.127265276084145 -1 L 25 -1 Z M 71.69367152608415 1 L 72.82093680216829 1 L 72.82093680216829 4 L 80.82093680216829 0 L 72.82093680216829 -4 L 72.82093680216829 -1 L 71.69367152608415 -1 Z"/><text text-anchor="middle" pointer-events="none" font-size="8px" fill="#000000" x="48.910468401084145" y="3" transform="rotate(180 48.910468401084145 0)" font-family="Helvetica Neue, Helvetica, Arial, sans-serif">Diverse_…</text></g><g class="relationship" transform="translate(-317.0492045094611 189.32697216058685) rotate(185.0266663500273)"><path class="b-outline" fill="#C990C0" stroke="none" d="M 25 1 L 38.521116199714726 1 L 38.521116199714726 -1 L 25 -1 Z M 106.32580369971473 1 L 119.84691989942945 1 L 119.84691989942945 4 L 127.84691989942945 0 L 119.84691989942945 -4 L 119.84691989942945 -1 L 106.32580369971473 -1 Z"/><text text-anchor="middle" pointer-events="none" font-size="8px" fill="#000000" x="72.42345994971473" y="3" transform="rotate(180 72.42345994971473 0)" font-family="Helvetica Neue, Helvetica, Arial, sans-serif">Diverse_Heritage</text></g><g class="relationship" transform="translate(-358.12262453995174 77.48866083036624) rotate(498.477691900989)"><path class="b-outline" fill="#C990C0" stroke="none" d="M 25 1 L 36.3503610967003 1 L 36.3503610967003 -1 L 25 -1 Z M 104.1550485967003 1 L 115.5054096934006 1 L 115.5054096934006 4 L 123.5054096934006 0 L 115.5054096934006 -4 L 115.5054096934006 -1 L 104.1550485967003 -1 Z"/><text text-anchor="middle" pointer-events="none" font-size="8px" fill="#000000" x="70.2527048467003" y="3" transform="rotate(180 70.2527048467003 0)" font-family="Helvetica Neue, Helvetica, Arial, sans-serif">Diverse_Heritage</text></g><g class="relationship" transform="translate(16.16500664338577 94.57114147287623) rotate(449.48631438774675)"><path class="b-outline" fill="#569480" stroke="none" d="M 25 1 L 65.59293867801462 1 L 65.59293867801462 -1 L 25 -1 Z M 124.49918867801462 1 L 165.09212735602924 1 L 165.09212735602924 4 L 173.09212735602924 0 L 165.09212735602924 -4 L 165.09212735602924 -1 L 124.49918867801462 -1 Z"/><text text-anchor="middle" pointer-events="none" font-size="8px" fill="#000000" x="95.04606367801462" y="3" font-family="Helvetica Neue, Helvetica, Arial, sans-serif">HAS_ASPECT</text></g><g class="relationship" transform="translate(16.16500664338577 94.57114147287623) rotate(375.92523071993645)"><path class="b-outline" fill="#569480" stroke="none" d="M 25 1 L 71.1118892747422 1 L 71.1118892747422 -1 L 25 -1 Z M 130.0181392747422 1 L 176.1300285494844 1 L 176.1300285494844 4 L 184.1300285494844 0 L 176.1300285494844 -4 L 176.1300285494844 -1 L 130.0181392747422 -1 Z"/><text text-anchor="middle" pointer-events="none" font-size="8px" fill="#000000" x="100.5650142747422" y="3" font-family="Helvetica Neue, Helvetica, Arial, sans-serif">HAS_ASPECT</text></g><g class="relationship" transform="translate(16.16500664338577 94.57114147287623) rotate(274.1780936033493)"><path class="b-outline" fill="#569480" stroke="none" d="M 25 1 L 75.94153784044599 1 L 75.94153784044599 -1 L 25 -1 Z M 134.847787840446 1 L 185.78932568089198 1 L 185.78932568089198 4 L 193.78932568089198 0 L 185.78932568089198 -4 L 185.78932568089198 -1 L 134.847787840446 -1 Z"/><text text-anchor="middle" pointer-events="none" font-size="8px" fill="#000000" x="105.39466284044599" y="3" font-family="Helvetica Neue, Helvetica, Arial, sans-serif">HAS_ASPECT</text></g><g class="relationship" transform="translate(16.16500664338577 94.57114147287623) rotate(184.37160760663903)"><path class="b-outline" fill="#569480" stroke="none" d="M 25 1 L 75.11613859722823 1 L 75.11613859722823 -1 L 25 -1 Z M 134.02238859722823 1 L 184.13852719445646 1 L 184.13852719445646 4 L 192.13852719445646 0 L 184.13852719445646 -4 L 184.13852719445646 -1 L 134.02238859722823 -1 Z"/><text text-anchor="middle" pointer-events="none" font-size="8px" fill="#000000" x="104.56926359722823" y="3" transform="rotate(180 104.56926359722823 0)" font-family="Helvetica Neue, Helvetica, Arial, sans-serif">HAS_ASPECT</text></g><g class="relationship" transform="translate(16.16500664338577 94.57114147287623) rotate(490.756594507655)"><path class="b-outline" fill="#F16667" stroke="none" d="M 25 1 L 33.76692052701506 1 L 33.76692052701506 -1 L 25 -1 Z M 104.52863927701506 1 L 113.29555980403012 1 L 113.29555980403012 4 L 121.29555980403012 0 L 113.29555980403012 -4 L 113.29555980403012 -1 L 104.52863927701506 -1 Z"/><text text-anchor="middle" pointer-events="none" font-size="8px" fill="#000000" x="69.14777990201506" y="3" transform="rotate(180 69.14777990201506 0)" font-family="Helvetica Neue, Helvetica, Arial, sans-serif">HAS_PROPERTY</text></g><g class="relationship" transform="translate(411.0574697800375 137.2053091323172) rotate(204.3038322250814)"><path class="b-outline" fill="#57C7E3" stroke="none" d="M 25 1 L 26.528955554241833 1 L 26.528955554241833 -1 L 25 -1 Z M 101.88051805424183 1 L 103.40947360848367 1 L 103.40947360848367 4 L 111.40947360848367 0 L 103.40947360848367 -4 L 103.40947360848367 -1 L 101.88051805424183 -1 Z"/><text text-anchor="middle" pointer-events="none" font-size="8px" fill="#000000" x="64.20473680424183" y="3" transform="rotate(180 64.20473680424183 0)" font-family="Helvetica Neue, Helvetica, Arial, sans-serif">HAS_CHAINED_…</text></g></g><g class="layer nodes"><g class="node" aria-label="graph-node0" transform="translate(17.940978859545705,292.6553075314604)"><circle class="b-outline" cx="0" cy="0" r="25" fill="#C990C0" stroke="#b261a5" stroke-width="2px"/><text class="caption" text-anchor="middle" pointer-events="none" x="0" y="5" font-size="10px" fill="#FFFFFF" font-family="Helvetica Neue, Helvetica, Arial, sans-serif"> Equality</text></g><g class="node" aria-label="graph-node1" transform="translate(217.26874512671748,151.9528041286053)"><circle class="b-outline" cx="0" cy="0" r="25" fill="#C990C0" stroke="#b261a5" stroke-width="2px"/><text class="caption" text-anchor="middle" pointer-events="none" x="0" y="5" font-size="10px" fill="#FFFFFF" font-family="Helvetica Neue, Helvetica, Arial, sans-serif"> Technol…</text></g><g class="node" aria-label="graph-node2" transform="translate(32.10531424920312,-123.63673103710296)"><circle class="b-outline" cx="0" cy="0" r="25" fill="#C990C0" stroke="#b261a5" stroke-width="2px"/><text class="caption" text-anchor="middle" pointer-events="none" x="0" y="5" font-size="10px" fill="#FFFFFF" font-family="Helvetica Neue, Helvetica, Arial, sans-serif"> Commu…</text></g><g class="node" aria-label="graph-node3" transform="translate(-200.34178797146433,78.01977059971799)"><circle class="b-outline" cx="0" cy="0" r="25" fill="#C990C0" stroke="#b261a5" stroke-width="2px"/><text class="caption" text-anchor="middle" pointer-events="none" x="0" y="5" font-size="10px" fill="#FFFFFF" font-family="Helvetica Neue, Helvetica, Arial, sans-serif"> Culture</text></g><g class="node" aria-label="graph-node4" transform="translate(-35.987308975414365,433.6065676726907)"><circle class="b-outline" cx="0" cy="0" r="25" fill="#F79767" stroke="#f36924" stroke-width="2px"/><text class="caption" text-anchor="middle" pointer-events="none" x="0" y="0" font-size="10px" fill="#FFFFFF" font-family="Helvetica Neue, Helvetica, Arial, sans-serif"> Social</text><text class="caption" text-anchor="middle" pointer-events="none" x="0" y="10" font-size="10px" fill="#FFFFFF" font-family="Helvetica Neue, Helvetica, Arial, sans-serif"> Justice</text></g><g class="node" aria-label="graph-node5" transform="translate(76.68097839021789,430.01235178009534)"><circle class="b-outline" cx="0" cy="0" r="25" fill="#F79767" stroke="#f36924" stroke-width="2px"/><text class="caption" text-anchor="middle" pointer-events="none" x="0" y="5" font-size="10px" fill="#FFFFFF" font-family="Helvetica Neue, Helvetica, Arial, sans-serif"> Inclusion</text></g><g class="node" aria-label="graph-node6" transform="translate(151.80401488599173,354.2180719717526)"><circle class="b-outline" cx="0" cy="0" r="25" fill="#F79767" stroke="#f36924" stroke-width="2px"/><text class="caption" text-anchor="middle" pointer-events="none" x="0" y="5" font-size="10px" fill="#FFFFFF" font-family="Helvetica Neue, Helvetica, Arial, sans-serif"> Accessi…</text></g><g class="node" aria-label="graph-node7" transform="translate(411.0574697800375,137.2053091323172)"><circle class="b-outline" cx="0" cy="0" r="25" fill="#F79767" stroke="#f36924" stroke-width="2px"/><text class="caption" text-anchor="middle" pointer-events="none" x="0" y="5" font-size="10px" fill="#FFFFFF" font-family="Helvetica Neue, Helvetica, Arial, sans-serif"> Sensors</text></g><g class="node" aria-label="graph-node8" transform="translate(360.1701899127667,13.703541233762401)"><circle class="b-outline" cx="0" cy="0" r="25" fill="#F79767" stroke="#f36924" stroke-width="2px"/><text class="caption" text-anchor="middle" pointer-events="none" x="0" y="0" font-size="10px" fill="#FFFFFF" font-family="Helvetica Neue, Helvetica, Arial, sans-serif"> Iot</text><text class="caption" text-anchor="middle" pointer-events="none" x="0" y="10" font-size="10px" fill="#FFFFFF" font-family="Helvetica Neue, Helvetica, Arial, sans-serif"> Devices</text></g><g class="node" aria-label="graph-node9" transform="translate(238.24364787913643,-10.63651927652829)"><circle class="b-outline" cx="0" cy="0" r="25" fill="#F79767" stroke="#f36924" stroke-width="2px"/><text class="caption" text-anchor="middle" pointer-events="none" x="0" y="5" font-size="10px" fill="#FFFFFF" font-family="Helvetica Neue, Helvetica, Arial, sans-serif"> Commu…</text></g><g class="node" aria-label="graph-node10" transform="translate(-40.35727528210824,-260.54345363880964)"><circle class="b-outline" cx="0" cy="0" r="25" fill="#F79767" stroke="#f36924" stroke-width="2px"/><text class="caption" text-anchor="middle" pointer-events="none" x="0" y="5" font-size="10px" fill="#FFFFFF" font-family="Helvetica Neue, Helvetica, Arial, sans-serif"> Rezident</text></g><g class="node" aria-label="graph-node11" transform="translate(63.79739853124582,-348.50400308378545)"><circle class="b-outline" cx="0" cy="0" r="25" fill="#F79767" stroke="#f36924" stroke-width="2px"/><text class="caption" text-anchor="middle" pointer-events="none" x="0" y="5" font-size="10px" fill="#FFFFFF" font-family="Helvetica Neue, Helvetica, Arial, sans-serif"> Organiz…</text></g><g class="node" aria-label="graph-node12" transform="translate(58.56937361374829,-249.6114423952953)"><circle class="b-outline" cx="0" cy="0" r="25" fill="#F79767" stroke="#f36924" stroke-width="2px"/><text class="caption" text-anchor="middle" pointer-events="none" x="0" y="5" font-size="10px" fill="#FFFFFF" font-family="Helvetica Neue, Helvetica, Arial, sans-serif"> Institutio…</text></g><g class="node" aria-label="graph-node13" transform="translate(-177.325220589771,-53.8107472983156)"><circle class="b-outline" cx="0" cy="0" r="25" fill="#F79767" stroke="#f36924" stroke-width="2px"/><text class="caption" text-anchor="middle" pointer-events="none" x="0" y="5" font-size="10px" fill="#FFFFFF" font-family="Helvetica Neue, Helvetica, Arial, sans-serif"> Diversity</text></g><g class="node" aria-label="graph-node14" transform="translate(-268.9532718024712,-90.72443567356872)"><circle class="b-outline" cx="0" cy="0" r="25" fill="#F79767" stroke="#f36924" stroke-width="2px"/><text class="caption" text-anchor="middle" pointer-events="none" x="0" y="5" font-size="10px" fill="#FFFFFF" font-family="Helvetica Neue, Helvetica, Arial, sans-serif"> Traditions</text></g><g class="node" aria-label="graph-node15" transform="translate(-317.0492045094611,189.32697216058685)"><circle class="b-outline" cx="0" cy="0" r="25" fill="#F79767" stroke="#f36924" stroke-width="2px"/><text class="caption" text-anchor="middle" pointer-events="none" x="0" y="5" font-size="10px" fill="#FFFFFF" font-family="Helvetica Neue, Helvetica, Arial, sans-serif"> Arts</text></g><g class="node" aria-label="graph-node16" transform="translate(-358.12262453995174,77.48866083036624)"><circle class="b-outline" cx="0" cy="0" r="25" fill="#F79767" stroke="#f36924" stroke-width="2px"/><text class="caption" text-anchor="middle" pointer-events="none" x="0" y="5" font-size="10px" fill="#FFFFFF" font-family="Helvetica Neue, Helvetica, Arial, sans-serif"> Heritage</text></g><g class="node" aria-label="graph-node17" transform="translate(498.6961550265874,-3.5338209884398735)"><circle class="b-outline" cx="0" cy="0" r="25" fill="#57C7E3" stroke="#23b3d7" stroke-width="2px"/><text class="caption" text-anchor="middle" pointer-events="none" x="0" y="0" font-size="10px" fill="#2A2C34" font-family="Helvetica Neue, Helvetica, Arial, sans-serif"> Iot</text><text class="caption" text-anchor="middle" pointer-events="none" x="0" y="10" font-size="10px" fill="#2A2C34" font-family="Helvetica Neue, Helvetica, Arial, sans-serif"> Sensors</text></g><g class="node" aria-label="graph-node18" transform="translate(337.7306169227252,-134.72140690308623)"><circle class="b-outline" cx="0" cy="0" r="25" fill="#57C7E3" stroke="#23b3d7" stroke-width="2px"/><text class="caption" text-anchor="middle" pointer-events="none" x="0" y="-5" font-size="10px" fill="#2A2C34" font-family="Helvetica Neue, Helvetica, Arial, sans-serif"> Data</text><text class="caption" text-anchor="middle" pointer-events="none" x="0" y="5" font-size="10px" fill="#2A2C34" font-family="Helvetica Neue, Helvetica, Arial, sans-serif"> Analytics</text><text class="caption" text-anchor="middle" pointer-events="none" x="0" y="15" font-size="10px" fill="#2A2C34" font-family="Helvetica Neue, Helvetica, Arial, sans-serif"> Syst</text></g><g class="node" aria-label="graph-node19" transform="translate(-48.874780690716406,-437.9551961323425)"><circle class="b-outline" cx="0" cy="0" r="25" fill="#57C7E3" stroke="#23b3d7" stroke-width="2px"/><text class="caption" text-anchor="middle" pointer-events="none" x="0" y="0" font-size="10px" fill="#2A2C34" font-family="Helvetica Neue, Helvetica, Arial, sans-serif"> Social</text><text class="caption" text-anchor="middle" pointer-events="none" x="0" y="10" font-size="10px" fill="#2A2C34" font-family="Helvetica Neue, Helvetica, Arial, sans-serif"> Progr…</text></g><g class="node" aria-label="graph-node20" transform="translate(-89.44169071499755,-346.9365246676931)"><circle class="b-outline" cx="0" cy="0" r="25" fill="#57C7E3" stroke="#23b3d7" stroke-width="2px"/><text class="caption" text-anchor="middle" pointer-events="none" x="0" y="5" font-size="10px" fill="#2A2C34" font-family="Helvetica Neue, Helvetica, Arial, sans-serif"> Commu…</text></g><g class="node" aria-label="graph-node21" transform="translate(-371.92926771937283,-66.35201415639585)"><circle class="b-outline" cx="0" cy="0" r="25" fill="#57C7E3" stroke="#23b3d7" stroke-width="2px"/><text class="caption" text-anchor="middle" pointer-events="none" x="0" y="0" font-size="10px" fill="#2A2C34" font-family="Helvetica Neue, Helvetica, Arial, sans-serif"> Culture</text><text class="caption" text-anchor="middle" pointer-events="none" x="0" y="10" font-size="10px" fill="#2A2C34" font-family="Helvetica Neue, Helvetica, Arial, sans-serif"> Events</text></g><g class="node" aria-label="graph-node22" transform="translate(-469.30827921404415,175.93462013240276)"><circle class="b-outline" cx="0" cy="0" r="25" fill="#57C7E3" stroke="#23b3d7" stroke-width="2px"/><text class="caption" text-anchor="middle" pointer-events="none" x="0" y="0" font-size="10px" fill="#2A2C34" font-family="Helvetica Neue, Helvetica, Arial, sans-serif"> Historical</text><text class="caption" text-anchor="middle" pointer-events="none" x="0" y="10" font-size="10px" fill="#2A2C34" font-family="Helvetica Neue, Helvetica, Arial, sans-serif"> Artifact</text></g><g class="node" aria-label="graph-node23" transform="translate(16.16500664338577,94.57114147287623)"><circle class="b-outline" cx="0" cy="0" r="25" fill="#C990C0" stroke="#b261a5" stroke-width="2px"/><text class="caption" text-anchor="middle" pointer-events="none" x="0" y="5" font-size="10px" fill="#FFFFFF" font-family="Helvetica Neue, Helvetica, Arial, sans-serif"> Culturel…</text></g><g class="node" aria-label="graph-node24" transform="translate(-79.34360201863366,205.38854303878455)"><circle class="b-outline" cx="0" cy="0" r="25" fill="#F16667" stroke="#eb2728" stroke-width="2px"/><text class="caption" text-anchor="middle" pointer-events="none" x="0" y="5" font-size="10px" fill="#FFFFFF" font-family="Helvetica Neue, Helvetica, Arial, sans-serif"> hasProp…</text></g><g class="node selected" aria-label="graph-node25" transform="translate(286.7371833973254,81.0625368115273)"><circle class="b-outline" cx="0" cy="0" r="25" fill="#F16667" stroke="#eb2728" stroke-width="2px"/><text class="caption" text-anchor="middle" pointer-events="none" x="0" y="5" font-size="10px" fill="#FFFFFF" font-family="Helvetica Neue, Helvetica, Arial, sans-serif"> hasChai…</text></g></g></svg>